<?xml version="1.0" encoding="UTF-8"?>
<!DOCTYPE svg PUBLIC "-//W3C//DTD SVG 1.0//EN" "http://www.w3.org/TR/2001/REC-SVG-20010904/DTD/svg10.dtd">
<!-- Creator: CorelDRAW 2018 (64-Bit) -->
<svg xmlns="http://www.w3.org/2000/svg" xml:space="preserve" width="127.814mm" height="145.261mm" version="1.0" style="shape-rendering:geometricPrecision; text-rendering:geometricPrecision; image-rendering:optimizeQuality; fill-rule:evenodd; clip-rule:evenodd"
viewBox="0 0 12781.36 14526.14"
 xmlns:xlink="http://www.w3.org/1999/xlink">
 <defs>
  <style type="text/css">
   <![CDATA[
    .fil0 {fill:#0B1D57}
   ]]>
  </style>
 </defs>
 <g id="Layer_x0020_1">
  <metadata id="CorelCorpID_0Corel-Layer"/>
  <g id="_2372582755152">
   <path class="fil0" d="M10361.21 0l-2959.71 15.53c-103.11,1.27 -206.05,8.58 -308.29,21.9 -373.45,47.4 -661.24,352.29 -687.03,727.86l-73.71 0c-25.76,-375.57 -313.55,-680.47 -687,-727.86 -102.27,-13.32 -205.23,-20.63 -308.36,-21.9l-2954.86 -15.53 1305.94 1875.12 2185.49 0 0 5269.84c0.12,0.53 0.5,1.76 0.81,2.99l1.56 6.76c45.88,230.67 247.89,397.11 483.08,397.99l20.46 0c235.18,-0.85 437.21,-167.26 483.09,-397.93l1.57 -6.76c0.3,-1.27 0.67,-2.48 0.86,-3.78l0 -5269.12 2191.51 0 1304.59 -1875.11zm-3982.97 10019.61c-989.71,-4.33 -1909.73,-510.12 -2443.69,-1343.45 -532.14,-700.71 -1021.64,-1465.68 -1363.75,-2163.27 -255.35,-520.94 -333.14,-1065.67 -360.93,-1455.38l0 -5046.12 1362.32 1949.14c-12.8,1718.39 -24.73,3426.06 -24.84,5093.67 0,1530.34 1261.98,2794.36 2830.94,2801.37 1568.96,-7.01 2830.91,-1271.03 2830.91,-2801.37 -0.08,-1667.62 -12.03,-3375.28 -24.81,-5093.67l1362.17 -1949.11 0 5046.12c-27.78,389.72 -105.55,934.45 -360.9,1455.39 -342.13,697.58 -831.61,1462.55 -1363.77,2163.27 -533.95,833.3 -1453.98,1339.08 -2443.66,1343.41l0.01 0z"/>
   <path class="fil0" d="M11677.75 11079.09c0,-45.95 -14.11,-80.47 -42.36,-103.49 -26.79,-22.39 -60.64,-34.58 -95.55,-34.42 -35.46,-0.52 -69.85,12.14 -96.51,35.5 -26.1,27.78 -40.87,64.31 -41.41,102.41l0 2481.8c0,45.96 13.8,80.46 41.41,103.49 26.94,22.75 61.23,34.99 96.51,34.41 35.89,1.64 71.08,-10.3 98.56,-33.45 26.9,-27.95 41.12,-65.72 39.35,-104.46l0 -1516.61 551.8 0c74.26,-2.35 146.09,26.6 197.97,79.79 51.46,52.04 79.58,122.76 77.87,195.93l0 1240.9c0,45.96 13.79,80.46 41.39,103.49 26.95,22.76 61.24,34.99 96.51,34.43 35.9,1.63 71.09,-10.32 98.57,-33.47 26.89,-27.95 41.13,-65.72 39.35,-104.45l0 -1240.9c2.58,-147.48 -56.74,-289.28 -163.54,-391.01 -102.11,-104.13 -242.28,-162.13 -388.12,-160.54l-551.8 0 0 -689.35zm-614.49 2574.46c21.53,-26.17 33.69,-58.8 34.56,-92.66 -0.22,-35.95 -14.77,-70.31 -40.45,-95.45 -24.95,-27.38 -60.43,-42.81 -97.47,-42.35l-413.93 0c-36.92,-0.76 -73.49,-7.42 -108.31,-19.75 -31.85,-16 -61.62,-35.85 -88.66,-59.08 -51.94,-52.25 -80.38,-123.36 -78.83,-197l0 -827.27c-0.25,-36.7 6.43,-73.14 19.72,-107.35 13.25,-33.66 33.39,-64.21 59.11,-89.66 52.29,-51.85 123.39,-80.26 197,-78.71l413.88 0c45.96,0 80.42,-15.12 103.36,-45.37 21.53,-26.12 33.68,-58.7 34.56,-92.54 -0.22,-35.96 -14.77,-70.36 -40.45,-95.55 -24.99,-27.35 -60.44,-42.75 -97.47,-42.37l-413.92 0c-304.6,-0.08 -551.61,246.77 -551.69,551.39l0 0.16 0 827.27c-2.93,148 56.84,290.37 164.53,391.96 109.66,106.38 238.71,159.58 387.16,159.58l413.87 0c45.97,0.01 80.43,-15.08 103.39,-45.25l0.03 0 0.01 0zm-1511.01 -782.01c91.92,0 137.91,-45.98 137.93,-137.92l0 -413.63c2.57,-147.48 -56.75,-289.28 -163.56,-391.01 -102.12,-104.14 -242.32,-162.13 -388.18,-160.54l-275.9 0c-148.07,-2.9 -290.46,56.85 -392.12,164.51 -106.41,109.65 -159.61,238.65 -159.61,387.04l0 827.27c-2.59,147.47 56.72,289.3 163.55,391.01 102.1,104.19 242.3,162.18 388.18,160.54l689.67 0c45.95,0 80.43,-15.09 103.48,-45.26 21.51,-26.18 33.64,-58.79 34.49,-92.66 -0.21,-35.93 -14.75,-70.28 -40.4,-95.45 -24.94,-27.37 -60.42,-42.8 -97.47,-42.34l-689.77 0c-36.92,-0.76 -73.48,-7.43 -108.31,-19.74 -31.86,-16.01 -61.63,-35.86 -88.67,-59.09 -51.92,-52.25 -80.38,-123.37 -78.82,-197.01l0 -275.72 965.51 0 0 0zm-965.52 -551.55c-0.26,-36.7 6.42,-73.12 19.7,-107.35 13.28,-33.66 33.4,-64.21 59.11,-89.66 52.31,-51.85 123.42,-80.26 197.04,-78.71l275.81 0c74.29,-2.35 146.15,26.59 198.03,79.79 51.48,52.04 79.58,122.76 77.84,195.93l0 275.72 -827.53 0 0 -275.72zm-1009.54 -1240.89c0,-45.96 -14.13,-80.48 -42.37,-103.5 -26.8,-22.38 -60.64,-34.58 -95.56,-34.42 -35.48,-0.5 -69.87,12.15 -96.56,35.5 -26.11,27.78 -40.86,64.32 -41.37,102.42l0 689.34 -309.07 0c-38.92,-1.96 -76.51,14.49 -101.49,44.42 -48.26,54.74 -48.68,136.72 -0.97,191.94 27.24,26.75 64.32,41.03 102.46,39.48l309.07 0 0 1516.61c0,45.96 13.78,80.47 41.37,103.49 26.96,22.76 61.27,34.98 96.56,34.43 69.38,6.78 131.13,-43.99 137.93,-113.37 0.79,-8.17 0.79,-16.4 0,-24.55l0 -1516.61 438.24 0c45.96,0 80.47,-15.13 103.49,-45.36 21.49,-26.14 33.64,-58.72 34.48,-92.56 -0.21,-35.95 -14.75,-70.34 -40.39,-95.54 -25,-27.37 -60.47,-42.77 -97.54,-42.38l-438.28 0 0 -689.34zm-1229.53 2895.42c2.37,74.27 -26.6,146.1 -79.83,197.96 -52.1,51.46 -122.85,79.55 -196.05,77.88l-551.71 0c-46.01,0 -80.51,13.78 -103.5,41.38 -22.78,26.95 -35.03,61.23 -34.49,96.53 -0.46,35.43 12.18,69.8 35.48,96.51 28.32,25.26 64.55,39.86 102.46,41.27l551.72 0c147.48,2.58 289.31,-56.69 391.14,-163.41 104.17,-102.1 162.16,-242.27 160.58,-388.12l0 -2068.16c0,-45.97 -14.12,-80.43 -42.36,-103.37 -26.77,-22.47 -60.63,-34.7 -95.56,-34.54 -35.48,-0.51 -69.87,12.14 -96.57,35.5 -26.06,27.79 -40.82,64.31 -41.37,102.41l0 1516.74 -551.71 0c-36.92,-0.76 -73.49,-7.43 -108.31,-19.74 -31.85,-16 -61.63,-35.86 -88.67,-59.09 -51.92,-52.25 -80.38,-123.36 -78.81,-197l0 -1240.9c0,-45.97 -14.12,-80.43 -42.38,-103.38 -26.75,-22.47 -60.62,-34.69 -95.57,-34.54 -35.45,-0.5 -69.85,12.15 -96.54,35.5 -26.08,27.79 -40.84,64.32 -41.38,102.42l0 1240.9c-2.92,148 56.85,290.37 164.53,391.96 109.66,106.38 238.74,159.59 387.2,159.59l551.72 0 0 275.7 -0.02 0.01 0 -0.01zm-1344.28 -320.97c21.49,-26.18 33.63,-58.8 34.47,-92.66 -0.2,-35.94 -14.74,-70.28 -40.38,-95.45 -24.97,-27.39 -60.47,-42.82 -97.54,-42.35 -36.77,-0.55 -71.7,-16.23 -96.56,-43.33 -27.58,-31.52 -41.37,-63.05 -41.37,-94.58l0 -2206.09c0,-45.95 -14.12,-80.47 -42.36,-103.49 -26.79,-22.39 -60.65,-34.58 -95.57,-34.42 -35.47,-0.51 -69.86,12.14 -96.56,35.5 -26.1,27.78 -40.87,64.31 -41.38,102.41l0 2206.09c0,110.23 40.4,206.74 121.19,289.54 75.8,80.58 181.98,125.62 292.61,124.09 45.96,0 80.44,-15.09 103.44,-45.26l0.01 0zm-1269.13 -325.06c-61.67,61.44 -145.45,95.52 -232.51,94.6l-165.52 0c-182.7,-0.23 -330.76,-148.26 -331.04,-330.95l0 -717.04c0.26,-182.68 148.35,-330.7 331.04,-330.83l165.51 0c88.69,-1.89 174.08,33.46 235.47,97.49 62.3,61.53 96.81,145.8 95.57,233.34l0 717.04c2.23,89.2 -33.6,175.14 -98.53,236.35l0.01 0zm374.39 -953.38c2.91,-162.39 -62.51,-318.52 -180.29,-430.35 -120.2,-117.46 -262.4,-176.23 -426.6,-176.32l-165.53 0c-162.44,-2.4 -318.39,63.75 -429.56,182.21 -118.22,121.56 -177.33,263.04 -177.33,424.46l0 717.04c0,170.77 60.1,314.53 180.29,431.31 120.2,116.97 262.4,175.43 426.6,175.35l165.51 0c162.46,2.95 318.67,-62.47 430.54,-180.29 117.56,-120.09 176.34,-262.23 176.36,-426.37l0 -717.04 0.01 0 0 0zm-2137.35 220.6c304.26,-0.8 550.77,-247.18 551.72,-551.44l0 -551.54c0.94,-303.67 -244.5,-550.61 -548.18,-551.54 -1.18,-0.01 -2.36,-0.01 -3.54,0l-965.56 0c-91.97,0 -137.94,45.96 -137.93,137.9l0 2481.8c0,45.96 13.79,80.46 41.37,103.49 26.99,22.75 61.27,34.98 96.56,34.43 69.4,6.76 131.17,-44.03 137.93,-113.42 0.79,-8.16 0.79,-16.37 0,-24.5l0 -965.18 827.63 0 0 0zm-827.63 -1378.82l827.63 0c74.28,-2.35 146.15,26.59 198.03,79.8 51.46,52.09 79.55,122.84 77.83,196.04l0 551.55c0,81.36 -26.92,147.67 -80.79,198.93 -52.22,50.52 -122.42,78.15 -195.07,76.78l-827.63 0 0 -1103.09 0 -0.01zm-1106.17 -41.26c26.37,27.04 62.74,41.98 100.49,41.26 37.03,0.44 72.49,-14.92 97.48,-42.24 25.64,-25.21 40.16,-59.59 40.39,-95.55 0.15,-37.84 -16.88,-73.69 -46.3,-97.48 -30.88,-26.96 -61.42,-40.42 -91.63,-40.42 -76.14,0.03 -137.87,61.76 -137.9,137.9 0.09,35.7 13.44,70.09 37.44,96.53l0.03 0zm238.42 730.73c0,-45.97 -14.12,-80.43 -42.36,-103.38 -26.77,-22.47 -60.63,-34.69 -95.57,-34.54 -35.46,-0.5 -69.86,12.15 -96.55,35.5 -26.07,27.79 -40.84,64.32 -41.38,102.42l0 1654.53c0,45.96 13.8,80.47 41.38,103.49 26.98,22.76 61.27,34.98 96.55,34.43 69.39,6.78 131.15,-43.99 137.93,-113.37 0.79,-8.17 0.79,-16.4 0,-24.55l0 -1654.53 0 0z"/>
  </g>
 </g>
</svg>
